PathFileType	4	(X/Y/Z)	S1_rest_fast_left.trc
DataRate	CameraRate	NumFrames	NumMarkers	Units	OrigDataRate	OrigDataStartFrame	OrigNumFrames
250.00	250.00	15	18	mm	250.00	17853	23803
Frame#	Time	c7	r_should	l_should	clavicle	r_upa	r_elb_l	r_elb_m	r_low	r_wri_l	r_wri_m	r_met	l_upa	l_elb_l	l_elb_m	l_low	l_wri_l	l_wri_m	l_met
	X1	Y1	Z1	X2	Y2	Z2	X3	Y3	Z3	X4	Y4	Z4	X5	Y5	Z5	X6	Y6	Z6	X7	Y7	Z7	X8	Y8	Z8	X9	Y9	Z9	X10	Y10	Z10	X11	Y11	Z11	X12	Y12	Z12	X13	Y13	Z13	X14	Y14	Z14	X15	Y15	Z15	X16	Y16	Z16	X17	Y17	Z17	X18	Y18	Z18
17853	71.40800	404.05484	1416.62195	88.88534	455.86383	1353.34741	277.93539	475.36169	1367.21924	-92.46446	553.05609	1308.64917	89.88412	427.13110	1155.27844	342.67676	442.72495	1057.96082	363.30359	388.92816	1029.06018	280.94772	423.78442	924.91687	377.01669	526.45929	859.46832	367.65652	460.32108	828.46100	369.24780	572.24097	782.10046	395.29480	508.91806	1148.56433	-132.73195	530.17639	1069.64734	-153.83414	503.50351	1031.40271	-59.30552	540.72681	916.41553	-136.25243	624.35541	856.19415	-169.11377	593.61115	830.24640	-108.97797	618.44647	786.86884	-195.78876
17854	71.41200	404.51523	1416.64441	88.62231	456.17593	1353.42932	277.72409	475.99799	1367.13171	-92.71148	553.47900	1308.60425	89.77443	427.14029	1155.26306	342.42816	442.78262	1058.10413	363.22482	388.96912	1029.21179	280.80475	423.24695	925.27466	377.59439	526.35120	859.55481	367.64850	460.37064	828.69781	369.37756	572.06049	782.17853	395.35797	509.35519	1148.25195	-132.56468	530.48944	1069.24817	-153.58412	502.90192	1031.14819	-58.96102	540.12537	915.93317	-135.73418	623.10944	854.99701	-168.74422	592.33014	829.33643	-108.39197	616.61127	785.64801	-195.28854
17855	71.41600	404.96021	1416.67407	88.36078	456.49939	1353.51306	277.50983	476.61346	1367.04346	-92.97138	553.87732	1308.56213	89.65351	427.20096	1155.36267	342.26245	442.83279	1058.24158	363.10486	389.02100	1029.35999	280.65363	423.05893	925.49347	377.66113	526.24408	859.63110	367.63348	460.70981	829.10608	369.81506	571.89728	782.24146	395.40201	509.76730	1147.94946	-132.40456	530.76764	1068.85620	-153.33049	500.80038	1030.64771	-58.77901	539.51361	915.45520	-135.21822	621.89972	853.82849	-168.34973	591.02667	828.50122	-107.94517	614.78400	784.47980	-194.77026
17856	71.42000	405.40237	1416.71497	88.08121	456.83289	1353.59558	277.29495	477.21030	1366.95483	-93.22222	554.28015	1308.51648	89.50804	427.30597	1155.47095	342.09164	442.89429	1058.36023	362.97952	389.07504	1029.51147	280.48773	422.96707	925.67834	377.58994	526.15082	859.70459	367.61426	460.71619	829.29102	369.87387	571.74573	782.30023	395.43054	510.14896	1147.66919	-132.24536	531.01892	1068.46362	-153.04291	500.60785	1030.44678	-58.28767	538.92944	914.98749	-134.70427	620.69482	852.69781	-167.93863	589.80005	827.64850	-107.40501	612.96332	783.33801	-194.22495
17857	71.42400	405.84122	1416.75940	87.80754	457.17566	1353.67175	277.08151	477.79645	1366.86682	-93.48358	554.68024	1308.47266	89.33325	427.47552	1155.58887	341.91852	442.96622	1058.47021	362.85211	389.14621	1029.66284	280.32724	422.91025	925.85883	377.48849	526.06946	859.77002	367.57855	460.64563	829.41992	369.84171	571.60510	782.34326	395.44617	510.49448	1147.40393	-132.09834	531.24457	1068.07495	-152.70665	500.83292	1030.34546	-57.75078	538.31818	914.52887	-134.15240	619.49280	851.60052	-167.54034	588.57227	826.82452	-106.92097	611.18048	782.27557	-193.69536
17858	71.42800	406.27664	1416.79285	87.55384	457.50974	1353.74329	276.87485	478.35303	1366.78027	-93.75315	555.07288	1308.44287	89.16320	427.64478	1155.71741	341.77283	442.97366	1058.55713	362.61511	389.23090	1029.80737	280.17209	422.88416	926.01202	377.37549	525.99634	859.81622	367.53436	460.56342	829.53033	369.79361	571.47296	782.37720	395.45609	510.81628	1147.13770	-131.95691	531.44946	1067.68469	-152.34727	501.11151	1030.28064	-57.25054	537.71472	914.09442	-133.58209	618.28412	850.54816	-167.14980	587.33942	826.02399	-106.45387	609.40942	781.22644	-193.18872
17859	71.43200	406.70554	1416.81787	87.31064	457.84515	1353.81055	276.67380	478.88583	1366.69348	-94.02071	555.45746	1308.42139	88.99656	427.82404	1155.84509	341.62839	442.97809	1058.64124	362.35858	389.33353	1029.92554	280.02908	422.88113	926.14532	377.27359	525.93353	859.85632	367.49139	460.48508	829.62109	369.74765	571.34637	782.40381	395.46167	511.11996	1146.86060	-131.80640	531.61432	1067.29395	-152.01767	501.44113	1030.23535	-56.75075	537.10486	913.67157	-132.97794	617.06335	849.53418	-166.74866	586.16022	825.22778	-105.88169	607.67194	780.25226	-192.68283
17860	71.43600	407.11896	1416.84216	87.07295	458.19153	1353.88037	276.47321	479.41046	1366.60706	-94.28482	555.94098	1308.24341	89.08431	428.02960	1155.97839	341.49374	443.21912	1058.78662	362.42676	389.44070	1030.04590	279.91040	422.90796	926.24652	377.18585	525.88269	859.89142	367.44858	460.41553	829.70288	369.69528	571.22614	782.41785	395.46173	511.40219	1146.58899	-131.64632	531.73145	1066.90381	-151.73468	501.72079	1030.19543	-56.29443	536.47784	913.26740	-132.38385	615.86310	848.56555	-166.34576	584.92859	824.51874	-105.42628	605.92468	779.27618	-192.17142
17861	71.44000	407.51880	1416.86682	86.83839	458.54236	1353.95361	276.26575	479.93213	1366.52258	-94.54552	556.53979	1307.87708	89.49944	428.24951	1156.11475	341.37204	443.38702	1058.90637	362.35040	389.55008	1030.17175	279.80139	422.95547	926.32867	377.10028	525.83868	859.92505	367.40686	460.35266	829.78082	369.63840	571.11493	782.42358	395.44714	511.67166	1146.31555	-131.48515	531.81317	1066.54504	-151.48695	501.98007	1030.16309	-55.83747	535.84589	912.88080	-131.80725	614.66821	847.63501	-165.94359	583.74274	823.82617	-104.92550	604.18506	778.38507	-191.66240
17862	71.44400	407.90958	1416.90161	86.59352	458.89255	1354.02966	276.06506	480.42816	1366.43384	-94.79990	556.85596	1307.93945	89.23939	428.49426	1156.23743	341.23630	443.54926	1059.01025	362.23282	389.67319	1030.29285	279.70151	423.01120	926.41321	377.02386	525.81256	859.95105	367.35571	460.29489	829.85962	369.59125	571.01385	782.41602	395.41733	511.92242	1146.05188	-131.33362	531.86920	1066.20825	-151.26997	502.29181	1030.10010	-55.34457	535.18805	912.51324	-131.25391	613.47626	846.73730	-165.55003	582.55853	823.11993	-104.38864	602.45453	777.50464	-191.18216
17863	71.44800	408.29193	1416.94641	86.35299	459.22864	1354.10449	275.87457	480.91327	1366.33350	-95.05733	557.09949	1308.11072	88.80614	428.73767	1156.34802	341.10522	443.64636	1059.08447	361.98770	389.81589	1030.41028	279.59625	423.07516	926.50061	376.95355	525.79535	859.97388	367.30368	460.24747	829.93207	369.54718	570.92908	782.39929	395.38174	512.14984	1145.80823	-131.20744	531.92603	1065.88806	-151.05511	502.65009	1030.02783	-54.82888	534.52539	912.16833	-130.74892	612.27551	845.86633	-165.15913	581.34436	822.49823	-103.96945	600.76917	776.69000	-190.70023
17864	71.45200	408.66989	1416.98047	86.12402	459.55002	1354.18103	275.68811	481.38861	1366.23315	-95.30683	557.52740	1307.98828	88.85426	429.01392	1156.46179	340.94693	443.64914	1059.12354	361.60202	389.98404	1030.53760	279.47864	423.15445	926.58099	376.88196	525.79565	859.98804	367.24994	460.21045	830.00360	369.50119	570.85925	782.38031	395.34021	512.35211	1145.58691	-131.11005	531.98883	1065.56763	-150.82883	502.92224	1029.95923	-54.37845	533.84637	911.84772	-130.28438	611.12402	845.03796	-164.77617	580.16516	821.87976	-103.47701	599.08923	775.88116	-190.22202
17865	71.45600	409.04199	1417.00891	85.90374	459.86823	1354.25159	275.50888	481.85034	1366.13525	-95.55253	557.79242	1308.10852	88.49724	429.30811	1156.56860	340.77847	443.87207	1059.22314	361.54120	390.16443	1030.65491	279.36142	423.24054	926.65656	376.81418	525.80835	859.99237	367.19183	460.18326	830.07117	369.45209	570.79657	782.34814	395.29080	512.53442	1145.37646	-131.03806	532.05743	1065.25647	-150.62640	503.14099	1029.87659	-53.99567	532.95569	911.76392	-129.76007	609.99341	844.23572	-164.41631	579.00360	821.28052	-102.99770	597.45551	775.13501	-189.77087
17866	71.46000	409.40930	1417.03882	85.70444	460.18793	1354.32483	275.32397	482.29782	1366.04285	-95.79652	558.32129	1307.79504	88.80815	429.59531	1156.66663	340.64062	444.17172	1059.34619	361.55734	390.35385	1030.76477	279.24756	423.33145	926.73956	376.75308	525.82892	859.99036	367.12906	460.16919	830.13794	369.40134	570.74451	782.31140	395.24265	512.70258	1145.17444	-130.98679	532.12555	1064.96960	-150.45955	503.30246	1029.79211	-53.70855	531.79120	911.99384	-129.16922	608.88580	843.45825	-164.08536	577.82306	820.79718	-102.66922	595.84827	774.41888	-189.34311
17867	71.46400	409.77982	1417.07336	85.51440	460.52789	1354.40259	275.14410	482.72388	1365.96069	-96.03066	558.69415	1307.69775	88.77971	429.87479	1156.76819	340.52408	444.34311	1059.41650	361.35068	390.55228	1030.87073	279.13748	423.43353	926.82104	376.69604	525.86102	859.98694	367.05679	460.16525	830.20331	369.35147	570.69885	782.26654	395.18250	512.86566	1144.99133	-130.95471	532.19031	1064.69299	-150.30597	503.34329	1029.72168	-53.51287	530.98987	911.86115	-128.80724	607.80847	842.71460	-163.76392	576.66705	820.30774	-102.29179	594.26044	773.70630	-188.90530
